


<svg id="Lager_1" data-name="Lager 1" xmlns="http://www.w3.org/2000/svg" viewBox="0 0 493 445.65"><defs><style>.cls-1{opacity:0.15;}.cls-2{fill:#fff;fill-rule:evenodd;}</style></defs><title>blabla</title><g class="cls-1"><path class="cls-2" d="M-309.28,52.78c29.43,0,54.43,7.2,69.55,18.66l40.95-9A11.42,11.42,0,0,1-185.16,71a11.22,11.22,0,0,1-8.66,13.4l-31.39,6.87a27,27,0,0,1,.9,6.9c0,15.25-12.7,28.28-33,36.42l18.28,18.49a11.09,11.09,0,0,1-.23,15.87,11.43,11.43,0,0,1-7.95,3.18,11.5,11.5,0,0,1-8.19-3.4l-27-27.32a164.17,164.17,0,0,1-26.83,2.14c-48.43,0-85-19.51-85-45.38S-357.71,52.78-309.28,52.78Zm0,68.31c37.35,0,62.13-13.8,62.13-22.93,0-1.91-1.09-4-3.15-6.17a11.56,11.56,0,0,1-1-1c-8.52-7.83-29.61-15.78-58-15.78-37.35,0-62.13,13.8-62.13,22.93S-346.63,121.09-309.28,121.09Z" transform="translate(394.24 241.33)"/><path class="cls-2" d="M-41-150c0-25.41,21-46.09,46.89-46.09S52.73-175.4,52.73-150,31.7-103.9,5.85-103.9-41-124.57-41-150Zm70.94,0a23.88,23.88,0,0,0-24-23.64A23.87,23.87,0,0,0-18.2-150a23.87,23.87,0,0,0,24,23.64A23.87,23.87,0,0,0,29.9-150Z" transform="translate(394.24 241.33)"/><path class="cls-2" d="M-104.65,64.86a11.18,11.18,0,0,1-2.49.28,11.38,11.38,0,0,1-11.13-8.79A11.23,11.23,0,0,1-109.61,43l31.39-6.87a27,27,0,0,1-.9-6.9c0-21,23.8-35.24,51.06-41.63L-79-112.77c-.07-.17-.16-.33-.23-.5A89.38,89.38,0,0,1-87.06-150c0-50.36,41.68-91.34,92.91-91.34s92.91,41,92.91,91.34a89.23,89.23,0,0,1-7.83,36.72c-.07.17-.15.33-.23.5L39.7-12.35C67-5.81,90.81,8.4,90.81,29.18c0,25.87-36.52,45.38-85,45.38-29.42,0-54.44-7.21-69.55-18.66ZM75.92-150c0-38-31.43-68.89-70.07-68.89S-64.22-188-64.22-150a67.32,67.32,0,0,0,5.78,27.44L5.85,4.05l64.29-126.6A67.32,67.32,0,0,0,75.92-150ZM68,29.18C68,23.28,53.11,13,29.19,8.35L16.06,34.19A11.43,11.43,0,0,1,5.85,40.4,11.44,11.44,0,0,1-4.37,34.19L-17.53,8.28C-41.72,12.79-56.28,23-56.28,29.18c0,1.91,1.11,4,3.17,6.19a11.22,11.22,0,0,1,1,1c8.52,7.83,29.62,15.78,58,15.78C43.2,52.11,68,38.31,68,29.18Z" transform="translate(394.24 241.33)"/><path class="cls-2" d="M-215.42,181.87A11.34,11.34,0,0,1-204,193.09a11.35,11.35,0,0,1-11.42,11.23,11.35,11.35,0,0,1-11.42-11.23A11.34,11.34,0,0,1-215.42,181.87Z" transform="translate(394.24 241.33)"/><path class="cls-2" d="M-151.71,74.89a11.34,11.34,0,0,1-11.42-11.22,11.35,11.35,0,0,1,11.42-11.23A11.35,11.35,0,0,1-140.3,63.67,11.34,11.34,0,0,1-151.71,74.89Z" transform="translate(394.24 241.33)"/></g></svg>