<svg id="Lager_1" data-name="Lager 1" xmlns="http://www.w3.org/2000/svg" viewBox="0 0 80 56"><defs><style>.cls-1{fill:#fff;}</style></defs><title>Namnlöst-1</title><path class="cls-1" d="M678.74,520.06A55.82,55.82,0,0,0,666.3,519c2.4-6.07,2.9-13.38,1.45-21.81a1.28,1.28,0,0,0-.2-.5,1.32,1.32,0,0,0-.39-.39,1.27,1.27,0,0,0-.5-.19,1.23,1.23,0,0,0-.54,0,47,47,0,0,0-12.74,5.72A41.6,41.6,0,0,0,640.69,484a1.34,1.34,0,0,0-.9-.28,1.27,1.27,0,0,0-.86.4c-5.92,6-9.87,12.18-11.81,18.38a47.21,47.21,0,0,0-13.7-6.39,1.33,1.33,0,0,0-1,.18,1.39,1.39,0,0,0-.58.89c-1.45,8.42-.95,15.74,1.45,21.81a55.82,55.82,0,0,0-12.44,1.1,1.3,1.3,0,0,0-.52.24,1.39,1.39,0,0,0-.36.44,1.33,1.33,0,0,0-.15.55,1.35,1.35,0,0,0,.09.56c5.8,14.49,17.09,17.83,26.27,17.83a43.92,43.92,0,0,0,13.64-2.26,43.93,43.93,0,0,0,13.64,2.27c9.17,0,20.47-3.34,26.27-17.84a1.32,1.32,0,0,0,.09-.56,1.25,1.25,0,0,0-.15-.54,1.2,1.2,0,0,0-.36-.44A1.32,1.32,0,0,0,678.74,520.06Zm-15.4-1a35.13,35.13,0,0,0-14,3.87,1.24,1.24,0,0,0-.61.34,23,23,0,0,0-6.92,6.14,31.54,31.54,0,0,0-.68-7.32c1.6-6.77,5.71-12.53,12.27-17.13a46.08,46.08,0,0,1,12-5.91C666.5,506.92,665.81,513.64,663.34,519.1ZM640,486.83c2.35,2.07,8.59,8.21,11.12,16.57a32.28,32.28,0,0,0-11.32,14.24,31.73,31.73,0,0,0-10.37-13.51C631,498.35,634.55,492.54,640,486.83Zm-25.79,12.25a46,46,0,0,1,12.9,6.59,28.54,28.54,0,0,1,11.32,16.45,31.54,31.54,0,0,0-.68,7.32c-5.4-7.24-14-9.74-21.53-10.34-2.46-5.46-3.15-12.18-2-20ZM624.29,537c-10-.54-17.14-5.48-21.31-14.68,6-1,27.84-3.47,35,12.85A40.37,40.37,0,0,1,624.29,537Zm31,0a40.56,40.56,0,0,1-13.71-1.83c7.19-16.32,29-13.87,35-12.85-4.18,9.2-11.34,14.14-21.33,14.68Z" transform="translate(-599.77 -483.69)"/><path class="cls-1" d="M641.77,492.69h-4v3h4Z" transform="translate(-599.77 -483.69)"/><path class="cls-1" d="M641.77,498.69h-4v2h4Z" transform="translate(-599.77 -483.69)"/><path class="cls-1" d="M641.77,503.69h-4v3h4Z" transform="translate(-599.77 -483.69)"/><path class="cls-1" d="M615.77,503.69a24.06,24.06,0,0,0,2.83,11l2.17-1.62a21.15,21.15,0,0,1-2.39-9.38Z" transform="translate(-599.77 -483.69)"/><path class="cls-1" d="M663.77,503.69h-2.61a21.15,21.15,0,0,1-2.39,9.38l2.17,1.62A24.06,24.06,0,0,0,663.77,503.69Z" transform="translate(-599.77 -483.69)"/></svg>